<svg xmlns="http://www.w3.org/2000/svg" viewBox="0 0 219 250" xml:space="preserve">
    <!-- <path d="M113 251H1V1h219v250H113M65.028 30.461c-15.894 7.265-31.801 14.5-47.67 21.816-3.983 1.836-6.52 4.253-6.491 9.513.236 42.973.162 85.947.082 128.92-.007 3.81.971 6.565 4.623 8.242 26.52 12.177 53.001 24.443 79.528 36.607 4.354 1.997 8.917 5.176 13.305 5.051 5.496-.157 11.089-2.751 16.324-5.023 10.593-4.598 20.962-9.709 31.442-14.568 16.584-7.69 33.246-15.219 49.695-23.188 1.955-.947 3.95-4.214 3.962-6.417.23-43.638.12-87.279.265-130.918.012-3.775-1.871-5.849-4.585-7.216-5.141-2.59-10.564-4.615-15.796-7.034C166.56 35.539 143.39 24.873 120.33 13.97c-6.916-3.27-13.14-3.374-20.139.2-11.265 5.753-22.982 10.62-35.164 16.29z"/> -->
    <path fill="#fff" d="M65.356 30.246c11.854-5.456 23.571-10.322 34.836-16.074 7-3.575 13.223-3.47 20.139-.2 23.059 10.901 46.23 21.567 69.38 32.274 5.233 2.42 10.656 4.444 15.797 7.034 2.714 1.367 4.597 3.441 4.585 7.216-.146 43.64-.034 87.28-.265 130.918-.012 2.203-2.007 5.47-3.962 6.417-16.45 7.97-33.11 15.498-49.695 23.188-10.48 4.86-20.85 9.97-31.442 14.568-5.235 2.272-10.828 4.866-16.324 5.023-4.388.125-8.95-3.054-13.305-5.05-26.527-12.165-53.007-24.43-79.528-36.608-3.652-1.677-4.63-4.433-4.623-8.241.08-42.974.154-85.948-.082-128.92-.029-5.261 2.508-7.678 6.49-9.514 15.87-7.316 31.777-14.55 47.999-22.03m82.65 177.245c14.592-6.614 29.228-13.135 43.712-19.977 1.548-.73 3.137-3.332 3.145-5.073.181-36.295.137-72.592.137-109.312l-76.762 35.31v112.74c9.946-4.51 19.546-8.863 29.768-13.688M45.322 82.032l-19.076-8.319c-.116 1.159-.237 1.8-.237 2.441-.01 35.5.046 71-.096 106.498-.013 3.482 1.869 4.27 4.383 5.423 17.22 7.892 34.36 15.958 51.56 23.892 6.806 3.14 13.7 6.087 20.914 9.281.101-1.218.221-1.994.222-2.77.009-35.332-.052-70.665.11-105.997.014-3.172-1.446-4.376-3.78-5.45-17.783-8.187-35.565-16.377-54-25m70.395-52.063c-2.423-.684-5.317-2.575-7.187-1.845-8.647 3.375-17.02 7.454-25.47 11.327A7940.079 7940.079 0 0 0 45.94 56.559c-2.792 1.296-5.478 2.818-8.802 4.542l73.304 33.688 73.198-33.787c-22.766-10.513-44.952-20.757-67.922-31.034z"/>
    <!-- <path d="M147.695 207.728c-9.91 4.59-19.511 8.943-29.457 13.453V108.439L195 73.13c0 36.72.044 73.017-.137 109.312-.008 1.741-1.597 4.342-3.145 5.073-14.484 6.842-29.12 13.363-44.023 20.213zM45.648 82.248c18.109 8.406 35.89 16.596 53.674 24.782 2.334 1.075 3.794 2.279 3.78 5.45-.162 35.333-.101 70.666-.11 105.999 0 .775-.12 1.55-.222 2.77-7.214-3.195-14.108-6.142-20.914-9.282-17.2-7.934-34.34-16-51.56-23.892-2.514-1.152-4.396-1.94-4.383-5.423.142-35.499.087-70.998.096-106.498 0-.641.12-1.282.237-2.44 6.53 2.847 12.803 5.582 19.402 8.534zM116.109 29.984c22.578 10.26 44.764 20.505 67.53 31.018l-73.198 33.787-73.304-33.688c3.324-1.724 6.01-3.246 8.802-4.542a7940.079 7940.079 0 0 1 37.121-17.11c8.45-3.872 16.823-7.951 25.47-11.326 1.87-.73 4.764 1.16 7.579 1.86z"/> -->
</svg>
